<svg width="20" height="20" viewBox="0 0 20 20" fill="none" xmlns="http://www.w3.org/2000/svg">
<path fill-rule="evenodd" clip-rule="evenodd" d="M10.8351 4.16634C10.8351 3.7061 10.4621 3.33301 10.0018 3.33301C9.54158 3.33301 9.16848 3.7061 9.16848 4.16634V10.9049L6.84105 8.57743C6.51561 8.25199 5.98797 8.25199 5.66253 8.57743C5.3371 8.90287 5.3371 9.4305 5.66253 9.75594L8.82331 12.9167C9.47419 13.5676 10.5295 13.5676 11.1803 12.9167L14.3395 9.75757C14.6649 9.43213 14.6649 8.90449 14.3395 8.57906C14.0141 8.25362 13.4864 8.25362 13.161 8.57906L10.8351 10.9049V4.16634Z" fill="#6F767E"/>
<path fill-rule="evenodd" clip-rule="evenodd" d="M3.33333 11.6666C3.79357 11.6666 4.16667 12.0397 4.16667 12.5V14.1666C4.16667 14.6269 4.53976 15 5 15H15C15.4602 15 15.8333 14.6269 15.8333 14.1666V12.5C15.8333 12.0397 16.2064 11.6666 16.6667 11.6666C17.1269 11.6666 17.5 12.0397 17.5 12.5V14.1666C17.5 15.5473 16.3807 16.6666 15 16.6666H5C3.61929 16.6666 2.5 15.5473 2.5 14.1666V12.5C2.5 12.0397 2.8731 11.6666 3.33333 11.6666Z" fill="#6F767E"/>
</svg>
