<svg width="127" height="107" viewBox="0 0 127 107" fill="none" xmlns="http://www.w3.org/2000/svg">
<path d="M70.3 105.7C98.3 105.7 121 83 121 54.9C121 26.8 98.2 4.09998 70.3 4.09998C42.3 4.09998 19.6 26.8 19.6 54.9C19.6 83 42.3 105.7 70.3 105.7Z" fill="#F4F4F4" stroke="#9A9FA5" stroke-width="2" stroke-miterlimit="10"/>
<path d="M117.7 21.6C119.964 21.6 121.8 19.7644 121.8 17.5C121.8 15.2357 119.964 13.4 117.7 13.4C115.436 13.4 113.6 15.2357 113.6 17.5C113.6 19.7644 115.436 21.6 117.7 21.6Z" fill="#9A9FA5"/>
<path d="M123.7 5.6C125.246 5.6 126.5 4.3464 126.5 2.8C126.5 1.2536 125.246 0 123.7 0C122.154 0 120.9 1.2536 120.9 2.8C120.9 4.3464 122.154 5.6 123.7 5.6Z" fill="#9A9FA5"/>
<path d="M22.3 21.5C23.8464 21.5 25.1 20.2464 25.1 18.7C25.1 17.1536 23.8464 15.9 22.3 15.9C20.7536 15.9 19.5 17.1536 19.5 18.7C19.5 20.2464 20.7536 21.5 22.3 21.5Z" fill="#9A9FA5"/>
<path d="M5.2 75.5C8.07188 75.5 10.4 73.1719 10.4 70.3C10.4 67.4281 8.07188 65.1 5.2 65.1C2.32812 65.1 0 67.4281 0 70.3C0 73.1719 2.32812 75.5 5.2 75.5Z" fill="#9A9FA5"/>
<path d="M107.8 29.5L108.6 93.9C108.6 96.1 106.8 97.8 104.6 97.8H41.8C39.6 97.8 37.8 96 37.8 93.9V11.1C37.8 8.89995 39.6 7.19995 41.8 7.19995H87.3L107.8 29.5Z" fill="white" stroke="#9A9FA5" stroke-width="2" stroke-miterlimit="10"/>
<path d="M87.8098 7.19995V25C87.8098 27.5 90.0098 29.5 92.5098 29.5H108.31" fill="#9A9FA5"/>
<path d="M95.2026 36.6113H80.6249C80.5666 36.6113 80.5666 36.6113 80.5083 36.6113C80.45 36.6113 80.45 36.6113 80.3917 36.6113H65.3475C65.2892 36.6113 65.2892 36.6113 65.2309 36.6113C65.1726 36.6113 65.1726 36.6113 65.1143 36.6113H50.9448C49.3704 36.6113 48.0876 37.9352 48.0876 39.4893V64.7003C48.0876 66.3119 49.3704 67.5783 50.9448 67.5783H95.2026C96.777 67.5783 98.0598 66.3119 98.0598 64.7003V39.4893C98.0598 37.9352 96.777 36.6113 95.2026 36.6113ZM66.1056 58.9444V53.3035H79.6336V58.9444H66.1056ZM79.6336 60.6711V65.909H66.1056V60.6711H79.6336ZM79.6336 45.8784V51.5768H66.1056V45.9359H79.6336V45.8784ZM66.1056 44.1516V38.3381H79.6336V44.1516H66.1056ZM96.3105 51.5768H81.383V45.9359H96.3105V51.5768ZM64.3563 51.5768H49.8369V45.9359H64.3563V51.5768ZM49.8369 53.3035H64.3563V58.9444H49.8369V53.3035ZM81.383 53.3035H96.3105V58.9444H81.383V53.3035ZM96.3105 39.4893V44.1516H81.383V38.3381H95.2026C95.844 38.3381 96.3105 38.8561 96.3105 39.4893ZM50.9448 38.3381H64.3563V44.1516H49.8369V39.4893C49.8369 38.8561 50.3034 38.3381 50.9448 38.3381ZM49.8369 64.7578V60.6711H64.3563V65.909H50.9448C50.3617 65.909 49.8369 65.391 49.8369 64.7578ZM95.2026 65.909H81.383V60.6711H96.3105V64.7578C96.3105 65.391 95.7857 65.909 95.2026 65.909Z" fill="#9A9FA5"/>
<path d="M64.7964 77.7896L65.7422 79.3598C66.0002 79.8267 66.2582 80.3359 66.5161 80.7603H66.5591C66.8171 80.2511 67.032 79.7842 67.29 79.3174L68.1499 77.7896H71.3744L68.2359 82.2882L71.4174 87.2537H68.0639L67.118 85.5561C66.8601 85.0892 66.6021 84.6224 66.3871 84.1131H66.2582C66.0432 84.6224 65.7852 85.0892 65.5273 85.5561L64.6244 87.2537H61.3569L64.6244 82.4579L61.4428 77.7896H64.7964Z" fill="#9A9FA5"/>
<path d="M72.6642 73.5032H75.6308V87.2537H72.6642V73.5032Z" fill="#9A9FA5"/>
<path d="M78.0385 84.6649C78.5974 85.0044 79.7152 85.3864 80.6181 85.3864C81.521 85.3864 81.9079 85.0893 81.9079 84.58C81.9079 84.0707 81.607 83.8585 80.4891 83.519C78.5114 82.84 77.7375 81.779 77.7805 80.6755C77.7805 78.9355 79.3283 77.5774 81.693 77.5774C82.8108 77.5774 83.7997 77.832 84.4016 78.1291L83.8857 80.1662C83.4557 79.954 82.6388 79.6145 81.8219 79.6145C81.0911 79.6145 80.7041 79.9116 80.7041 80.3784C80.7041 80.8453 81.0911 81.0575 82.2519 81.4819C84.0576 82.1185 84.8315 83.0097 84.8745 84.4102C84.8745 86.1503 83.4557 87.4659 80.7041 87.4659C79.4573 87.4659 78.3394 87.2113 77.6086 86.7869L78.0385 84.6649Z" fill="#9A9FA5"/>
</svg>
