<?xml version="1.0" encoding="UTF-8"?><svg xmlns="http://www.w3.org/2000/svg" viewBox="0 0 456.69 159.08"><defs><style>.d{fill:#084d9a;}.e{fill:#e5231f;}.f{fill:#2ea237;}.g{fill:#ef7b10;}</style></defs><g id="a"/><g id="b"><g id="c"><g><path class="e" d="M383.93,13.19l-1.34,1.67c-2.91,3.74-6.23,8.4-9.98,13.98-3.76,5.58-7.14,10.94-10.16,16.07-3.01,5.13-5.76,10.09-8.22,14.88l1.96-.58,11.18-3.31c5.78-1.62,12.2-3.06,19.26-4.3,7.07-1.24,12.8-1.98,17.21-2.21l4.81-.34c2.7-.14,4.09,.29,4.14,1.31,.02,.56-.48,1.69-1.53,3.4l-.26,.48c-5.17-1-10.67-1.35-16.52-1.05-3.15,.16-6.17,.46-9.09,.89-2.91,.44-5.99,1.02-9.23,1.75-3.24,.73-6.64,1.57-10.18,2.51-5.73,1.55-10.04,2.85-12.95,3.88-2.71,5.05-5.61,11.95-8.7,20.68-3.75,10.53-6.38,19.97-7.87,28.31-1.5,8.34-2.03,16.73-1.6,25.16,.26,5.04,1.12,9.62,2.59,13.78-.24,.27-.46,.52-.67,.75-.21,.23-.4,.45-.58,.65l-2.18,2.19-2.63,2.69c-.54,.59-1.09,.91-1.66,.94-1.4,.07-2.19-1.91-2.4-5.94-.58-11.32,.91-24.49,4.48-39.49,3.57-15.01,8.54-28.91,14.91-41.73l2.58-5.25c.12-.13,.28-.38,.47-.78,.21-.38,.33-.71,.38-.96-10.01,3.22-20.4,7.63-31.18,13.22l-1.94,1.05,.34-2.67,1.58-.74c4.51-2.24,9.74-4.59,15.7-7.04,6.04-2.45,9.76-3.9,11.13-4.35l4.09-1.44c.19,0,.68-.19,1.49-.55,.51-.97,.86-1.62,1.03-1.95l2.94-5.35c.69-1.3,2.31-4.09,4.87-8.39,.82-1.44,1.47-2.57,2-3.42,.51-.85,1.07-1.76,1.66-2.74,1.04-1.75,1.86-3.09,2.44-4.01l7.1-11.15c2.63-4.12,4.57-6.92,5.82-8.44,1.24-1.52,2.38-2.3,3.39-2.35,.31-.02,.75,.07,1.34,.28"/><path class="e" d="M320.97,125.69s-.41,3.52-2.5,4.64c-2.09,1.11-4.39,.39-5.67-.21-2.31-1.1-1.35-3.76,1.23-8.21,0,0,6.24-8.01,7.71-17.65,.56-3.62-1.15-8.08-5.29-8.2-4.73-.15-9.31,7.65-9.31,7.65,0,0-2.08,1.8-15.08,32.11-.13,1.94-2.31,1.96-5.88,2.34-3.58,.38-1.08-2.39-1.08-2.39,0,0,3.85-4.56,3.85-6.55,0,0,9.76-34.06,6.78-41.38,0,0,.92-.96,2.91-.64,1.98,.32-2.2,28.32-2.2,28.32,0,0,23.5-41,30.32-26.14,0,0,1.52,4.45-1.89,14.2-1.3,3.71-3.17,8.93-6.37,15.83,0,0-3.07,7.1,2.47,6.29"/><path class="e" d="M349.7,91.31s.34-3.53,2.41-4.67c2.06-1.15,4.38-.49,5.67,.1,2.32,1.04,1.41,3.72-1.07,8.22,0,0-6.09,8.14-7.38,17.8-.49,3.62,1.31,8.06,5.44,8.1,4.73,.05,9.17-7.83,9.17-7.83,0,0,2.05-1.84,14.46-32.39,.09-1.94,2.27-2.01,5.84-2.45,3.57-.45,1.12,2.37,1.12,2.37,0,0-3.75,4.62-3.72,6.61,0,0-9.1,34.23-5.99,41.51,0,0-.91,.98-2.89,.69-1.99-.28,1.66-28.37,1.66-28.37,0,0-22.72,41.47-29.81,26.72,0,0-1.61-4.43,1.61-14.24,1.23-3.72,3-8.98,6.07-15.93,0,0,2.93-7.16-2.59-6.24"/><path class="e" d="M450.62,102.77c-5.77-1.38,.93-21.15,.93-21.15,7.45-15.41,4.61-18.11,4.61-18.11-2.02-5.97-17.48,1.49-23.66,4.75-2.29,.35-2.95,1.98-2.95,1.98-1.2,3.85,3.19,3.3,3.19,3.3,1.68-.24,1.44-2.72,1.76-3.31,6.59-7.01,16.66-7.7,17.26-2.71,1.24,10.45-16.81,19.69-16.81,19.69-15.93,10.41-20.11,23.65-12.51,25.76,7.6,2.11,21.59-7.98,21.59-7.98,1.03,3.95,5.93,1.38,5.93,1.38,3.95-1.34,4.55-2.54,.66-3.62m-12.89,2.22c-8.58,9.55-14.72,1.48-7.81-7.55,8.75-11.46,16.61-13.2,16.61-13.2-2.42,10.85-2.96,14.25-8.8,20.75"/><path class="e" d="M420.81,68c-4.77-11.13-17.51,19.73-17.51,19.73,0,0-2.6-7.11-4.13-9.59-.52-.83-.87-1.12-.87-1.12,0,0-2.32-1.08-3.34,1.04-.41,.85,.29,1.35,.39,1.85,.11,.45,.63,1.81,1.47,3.25,2.06-1.67,4.12,1.75,5.3,6.56-3.84,8.24-7.79,18.73-7.79,18.73-5.83,17.46,1.3,21.07,1.3,21.07,9.28,2.14,11.93-15.1,11.03-25.18-.36-3.9-2.38-13.87-2.38-13.87,0,0,5.53-15.06,11.24-18.82,.67,2.34,2.51,2.42,3.01,2.34,4.69-.67,2.28-6.01,2.28-6.01m-21.11,51.29c-5.3,.52-2.84-8.16-1-13.98,2.6-8.19,4.19-12.38,4.19-12.38,1.17,2.72,4.26,25.63-3.2,26.36"/><path class="e" d="M152.01,90.1c11.32-13.37,21.84-21.35,31.55-23.94,7.51-2.01,14.25-.04,20.19,5.9,3.07,3.03,6.05,7.26,8.9,12.67,2.85,5.42,5.14,11.37,6.88,17.85,1.99,7.46,3.11,15.57,3.36,24.31,.59-.92,2.17-4,4.7-9.23,2.36-4.83,5.54-10.38,9.53-16.68,3.99-6.28,8.31-12.49,12.95-18.63,5.46-7.28,10.81-13.82,16.06-19.59,5.24-5.77,11.05-11.5,17.41-17.17,8.98-8.1,18-15.44,27.08-21.97,9.08-6.54,18.1-12.28,27.08-17.25,5.85-3.37,9.91-5.36,12.18-5.97,2.79-.74,4.37-.48,4.71,.79,.26,.95,.1,2.12-.46,3.52-.04,.26-.19,.74-.46,1.47-4.9,1.66-10.26,3.93-16.09,6.83-5.82,2.9-11.89,6.28-18.16,10.13-6.29,3.87-12.48,8.11-18.61,12.71-6.12,4.61-11.84,9.28-17.12,14.01-9.33,8.26-18.27,17.6-26.82,28.01-8.55,10.41-15.86,20.79-21.91,31.11-6.05,10.34-10.53,20.08-13.41,29.24l-.86,2.94c-.89,2.63-1.37,4.33-1.44,5.11-.59,3.08-1.32,5.22-2.21,6.46-.89,1.22-2.26,2.08-4.08,2.56-1.22,.33-2.84,.59-4.85,.78,6.43-15.57,7.53-31.27,3.31-47.09-1.27-4.73-3.16-9.73-5.7-15.03-2.54-5.29-5.19-9.63-7.98-13.02-3.22-3.97-6.52-6.77-9.9-8.4-3.39-1.63-6.66-2.02-9.8-1.18-6.21,1.66-14.4,8.34-24.57,20.03l-1.47-1.29Z"/><path class="e" d="M268.99,124.3s16.3-11.74,16.48-20.79c.18-9.04-9.17-19.76-24.55-3.99-15.38,15.78-16.71,32.34-12.3,38.46,9.53,13.23,32.33-8.43,32.33-8.43,0,0-.42-4.53-2.98-2.06,0,0-9.78,11.87-18.28,10.2-8.52-1.68-12.03-27.88,4.71-36.09,0,0,8.85-6.09,12.97,5.78,3.33,9.61-8.32,14.41-8.32,14.41,0,0-5.52-.61-7.06,.87-2.98,2.87,2.43,4.56,7.01,1.64"/></g><g><path class="e" d="M26.18,59.25c-.9-3.37-2.26-6.94-4.06-10.71-1.79-3.78-3.7-6.87-5.68-9.28-2.3-2.84-4.64-4.83-7.05-5.99-2.41-1.16-4.73-1.44-6.98-.85-.72,.19-1.47,.49-2.25,.87v50.51H26.69c1.85-8.14,1.69-16.32-.51-24.55"/><path class="e" d="M58.56,37.07c-6.1,7.43-11.3,14.82-15.61,22.18-4.31,7.36-7.49,14.3-9.56,20.83l-.6,2.09c-.21,.62-.38,1.15-.53,1.63h38.74V23.38c-4.26,4.23-8.42,8.79-12.44,13.69"/><path class="e" d="M71.14,19.84s-27.08,24.62-36.64,50.91c0,0,1-21.93-12.89-37.34,0,0-9.89-10.71-21.61-2.01V13.21l71.13-.02v6.65Z"/></g><g><path class="f" d="M26.12,115.03H.32v-26.87H24.77l-1.67,5.1s7.7,0,8.54-5.02h20.6l-26.12,26.79Z"/><path class="f" d="M56.6,88.41h14.56v45.04s-3.5-.84-3.5-4.35,3.01-5.03,3.01-5.03l-2.34-4.85s2.01-2.18,.5-4.52c-1.5-2.34-2.68-1.84-2.68-1.84l-9.54-24.45Z"/><path class="f" d="M10.65,159.02c-2.82-3.12-5.13-8.69-5.13-12.51,0-10.08,8.51-18.26,18.59-18.26s18.25,8.18,18.25,18.26c0,4.82-1.87,9.22-4.93,12.48l.07,.08h33.65v-22.44s-4.88,.55-6.36-5.53c-1.17-4.86,2.18-7.71,2.18-7.71l-1.33-3.12s-2.51,.12-3.52-2.4c-1.01-2.51,1.01-4.02,1.01-4.02l-8.54-21.61-8.54,22.61h8.03v25.95h1.37v11.92h-12.4v-11.86h.48s-4.69-14.3-18.76-14.3-21.94,11.57-21.1,25.64l-3.35,.66v6.13H10.66v.02Z"/><path class="f" d="M15.14,158.96c-3.89-2.76-6.44-7.31-6.44-12.44,0-8.42,6.83-15.25,15.24-15.25s15.24,6.82,15.24,15.25c0,5.19-2.6,9.77-6.56,12.53"/><path class="f" d="M.16,149.53v-31.49H50.9v22.78h-4.19s-4.69-16.92-22.11-17.43c-17.41-.5-23.44,14.91-24.45,26.13"/><polygon class="f" points="50.23 94.77 42.53 114.86 30.47 114.86 50.23 94.77"/></g><g><path class="d" d="M146.74,12.93h-63.16s-7.22,6.24-7.69,6.73v4.03l20.56,16.16,50.24,5.94,.04-32.87Z"/><polygon class="d" points="78.54 12.89 75.86 15.4 75.86 12.93 78.54 12.89"/><polygon class="d" points="75.85 27.63 84.39 34.33 85.24 41.84 75.85 41.86 75.85 27.63"/><polygon class="d" points="75.85 42.87 94.95 42.87 92.1 74.68 75.85 75.18 75.85 42.87"/><path class="d" d="M93.28,74.68l2.85-31.81,50.58,6.2v15.24h-1.34s-3.18-14.9-23.12-15.24c0,0-20.1,.5-20.76,25.45l-8.2,.17Z"/><path class="d" d="M112.88,83.84c-2.77-2.77-4.49-6.6-4.49-10.83,0-8.46,6.86-15.32,15.33-15.32s15.33,6.86,15.33,15.32c0,3.84-2.18,8.1-4.52,10.8l-21.64,.03Z"/><path class="d" d="M105.16,77.04c-.46-1.66-.7-3.42-.7-5.23,0-10.82,8.78-19.6,19.62-19.6s19.61,8.78,19.61,19.6c0,1.63-.2,3.22-.57,4.74l.54-.02h3.05l.04,7.25h-7.33s4.67-15.91-3.52-23.58c-3.16-2.95-7.27-4.83-11.56-4.89-8.04-.12-15.57,5.65-16.82,11.43,0,0-3.03,7.53,2,16.82h-33.63l-.03-5.78,28.63-.5,.67-.23Z"/></g><g><path class="g" d="M75.52,88.17v70.85h27.21l-15.32-17.95s-4.77-5.02,1.26-10.04c0,0-7.54,4.53-8.79-6.03l-3.74-36.8-.61-.02Z"/><path class="g" d="M79.5,88.32h3.02l2.39,31.27s1.13,5.53,6.78,3.27l29.64-12.19s3.64-.75,2.77-8.04l-1.01-14.32h1.63l1.26,18.21s.87,5.4-4.15,7.54c-5.03,2.13-33.54,13.94-33.54,13.94,0,0-5.4,3.02-5.77-4.01l-3.02-35.67Z"/><path class="g" d="M120.9,88.41l1.34,16.41s.5,3.01-3.01,4.52l-28.14,11.72s-3.68,2.17-4.19-3.35l-2.18-29.47,36.17,.17Z"/><path class="g" d="M127.78,88.41h18.61v43.37l-16.1-14.41s-1.17-2.17-4.85-1.5c0,0,3.86-3.35,3.86-9.05l-1.51-18.41Z"/><path class="g" d="M130.79,122.23l-2.35-2.51s-2.17-2.01-6.03-.33l-2.52,.83,5.03,5.18,5.86-3.18Z"/><polygon class="g" points="132.63 123.57 126.6 127.09 131.46 131.78 137.65 128.43 132.63 123.57"/><polygon class="g" points="146.36 136.14 139.49 129.77 122.92 139.65 128.95 146.34 146.36 136.14"/><polygon class="g" points="146.19 138.64 146.19 153.04 137.15 159.08 125.77 159.08 120.74 153.71 146.19 138.64"/><polygon class="g" points="146.38 159.02 146.38 156.73 142.84 158.91 146.38 159.02"/><polygon class="g" points="122.92 159.08 118.56 154.73 111.36 159.08 122.92 159.08"/><polygon class="g" points="117.06 153.22 110.69 146.85 101.32 152.22 107 159.08 117.06 153.22"/><polygon class="g" points="120.9 140.66 127.11 147.35 119.06 152.22 112.71 145.68 120.9 140.66"/><polygon class="g" points="119.4 139.14 114.54 133.95 105.83 138.81 110.86 144.01 119.4 139.14"/><polygon class="g" points="129.45 133.12 124.59 128.26 116.55 132.78 121.41 137.8 129.45 133.12"/><polygon class="g" points="122.92 126.75 117.72 121.56 109.18 125.08 114.88 131.28 122.92 126.75"/><polygon class="g" points="112.87 132.28 107.18 126.08 97.46 130.1 104.16 137.31 112.87 132.28"/><path class="g" d="M102.15,138.15l-6.86-7.21-3.52,1.68s-4.35,2.85-1.67,6.36c2.68,3.52,3.52,4.35,3.52,4.35l8.54-5.19Z"/><polygon class="g" points="103.49 139.98 108.85 145.34 100.14 150.54 95.12 144.84 103.49 139.98"/></g></g></g></svg>